HIERARCHY
ROOT Hips
{
    OFFSET 0.000000 0.000000 0.000000
    CHANNELS 6 Xposition Yposition Zposition Zrotation Xrotation Yrotation
    JOINT Spine
    {
        OFFSET -0.000000 7.761268 0.000000
        CHANNELS 3 Zrotation Xrotation Yrotation
        JOINT Spine1
        {
            OFFSET -0.000000 24.785763 0.000000
            CHANNELS 3 Zrotation Xrotation Yrotation
            JOINT Neck
            {
                OFFSET -0.000000 24.683973 2.243998
                CHANNELS 3 Zrotation Xrotation Yrotation
                JOINT Head
                {
                    OFFSET -0.000000 13.250945 -1.892992
                    CHANNELS 3 Zrotation Xrotation Yrotation
                    End Site
                    {
                        OFFSET -0.000000 23.662401 0.000000
                    }
                }
            }
            JOINT LeftShoulder
            {
                OFFSET 3.794134 23.444212 -0.177979
                CHANNELS 3 Zrotation Xrotation Yrotation
                JOINT LeftArm
                {
                    OFFSET 9.211075 0.000000 0.000000
                    CHANNELS 3 Zrotation Xrotation Yrotation
                    JOINT LeftForeArm
                    {
                        OFFSET 34.352840 0.000000 0.000000
                        CHANNELS 3 Zrotation Xrotation Yrotation
                        JOINT LeftHand
                        {
                            OFFSET 25.460636 0.000000 0.000000
                            CHANNELS 3 Zrotation Xrotation Yrotation
                            End Site
                            {
                                OFFSET 14.197442 0.000000 0.000000
                            }
                        }
                    }
                }
            }
            JOINT RightShoulder
            {
                OFFSET -3.767389 23.444212 -0.177979
                CHANNELS 3 Zrotation Xrotation Yrotation
                JOINT RightArm
                {
                    OFFSET -9.211075 0.000000 0.000000
                    CHANNELS 3 Zrotation Xrotation Yrotation
                    JOINT RightForeArm
                    {
                        OFFSET -34.352840 0.000000 0.000000
                        CHANNELS 3 Zrotation Xrotation Yrotation
                        JOINT RightHand
                        {
                            OFFSET -25.460636 0.000000 0.000000
                            CHANNELS 3 Zrotation Xrotation Yrotation
                            End Site
                            {
                                OFFSET -14.197442 0.000000 0.000000
                            }
                        }
                    }
                }
            }
        }
    }
    JOINT LeftUpLeg
    {
        OFFSET 9.464960 0.000000 0.000000
        CHANNELS 3 Zrotation Xrotation Yrotation
        JOINT LeftLeg
        {
            OFFSET -0.000000 -36.073700 0.000000
            CHANNELS 3 Zrotation Xrotation Yrotation
            JOINT LeftFoot
            {
                OFFSET -0.000000 -40.808823 0.000000
                CHANNELS 3 Zrotation Xrotation Yrotation
                JOINT LeftToeBase
                {
                    OFFSET -0.000000 -6.152224 14.197442
                    CHANNELS 3 Zrotation Xrotation Yrotation
                    End Site
                    {
                        OFFSET -0.000000 0.000000 3.785984
                    }
                }
            }
        }
    }
    JOINT RightUpLeg
    {
        OFFSET -9.464960 0.000000 0.000000
        CHANNELS 3 Zrotation Xrotation Yrotation
        JOINT RightLeg
        {
            OFFSET -0.000000 -36.073700 0.000000
            CHANNELS 3 Zrotation Xrotation Yrotation
            JOINT RightFoot
            {
                OFFSET -0.000000 -40.808823 0.000000
                CHANNELS 3 Zrotation Xrotation Yrotation
                JOINT RightToeBase
                {
                    OFFSET -0.000000 -6.152224 14.197442
                    CHANNELS 3 Zrotation Xrotation Yrotation
                    End Site
                    {
                        OFFSET -0.000000 0.000000 3.785984
                    }
                }
            }
        }
    }
}
MOTION
Frames:    8
Frame Time:    0.004000
-25.672150    29.075592    -205.435638    13.675822    -14.223370    -0.176153    -7.346159    52.136993    3.939410    -8.368075    24.178444    2.137579    -2.572243    23.130716    -2.507215    2.456860    15.407710    -2.763342    0.669226    8.219458    -27.343863    -20.177248    0.849861    -42.830643    -0.554442    -26.896837    -22.535500    36.285030    -19.817526    23.518410    -1.017863    3.480728    17.513109    17.704571    11.874822    43.023003    -4.954864    -22.532343    20.779350    -38.549934    -12.936416    -25.749529    6.138951    -78.903816    9.630774    -159.730515    42.365524    148.928024    27.457945    -35.417583    26.503029    0.000000    0.000000    0.000000    -32.021355    -24.092590    5.020543    -176.816879    37.333302    -150.696243    -25.891520    -27.358055    -22.455732    0.000000    0.000000    0.000000    
-25.709665    29.099297    -205.424423    13.683073    -14.522034    -0.164342    -7.471218    52.468872    4.048618    -8.363061    24.104479    2.151993    -2.588606    23.208326    -2.517417    2.513337    15.344014    -2.775153    0.567171    8.160821    -27.418728    -20.165247    0.829742    -42.763065    -0.485385    -26.870230    -22.278658    37.006435    -19.436384    24.066448    -0.932237    3.459396    17.597593    17.701118    11.901963    42.929970    -5.005435    -22.489906    20.748487    -38.582138    -12.855232    -25.806553    6.202608    -78.582054    9.709301    -159.789749    42.386066    148.873611    27.479116    -35.296375    26.540380    0.000000    0.000000    0.000000    -31.905289    -23.800190    5.268765    -176.887314    37.379478    -150.613342    -25.796785    -27.384718    -22.407974    0.000000    0.000000    0.000000    
-25.735491    29.081720    -205.445602    13.691037    -14.568660    -0.146231    -7.511952    52.473995    4.076912    -8.360489    24.122459    2.160430    -2.624069    23.157791    -2.520653    2.571878    15.393899    -2.780279    0.539755    8.119418    -27.464508    -20.162161    0.789816    -42.745213    -0.315186    -26.772287    -21.946733    37.283714    -19.093065    24.498646    -0.964726    3.488123    17.618628    17.717134    11.849884    42.940346    -5.010393    -22.438046    20.738020    -38.687740    -12.729603    -25.927378    6.355449    -78.575119    9.896279    -159.829117    42.390671    148.946732    27.388029    -35.292122    26.494259    0.000000    0.000000    0.000000    -31.870949    -23.803310    5.280933    -176.887604    37.352844    -150.618088    -25.762648    -27.347588    -22.401653    0.000000    0.000000    0.000000    
-25.758659    29.073566    -205.460495    13.713515    -14.681178    -0.130892    -7.577705    52.572998    4.122590    -8.370259    24.105873    2.166274    -2.660418    23.146791    -2.515489    2.649352    15.396266    -2.776520    0.492269    8.090505    -27.561911    -20.132038    0.720253    -42.663624    -0.119188    -26.732628    -21.501242    36.356689    -19.397793    23.974586    -0.983307    3.467672    17.649900    17.750622    11.849583    42.908092    -5.023841    -22.350149    20.740459    -38.680611    -12.605679    -26.011375    6.447264    -78.481712    9.976940    -159.806320    42.390446    148.939301    27.417315    -35.256786    26.484186    0.000000    0.000000    0.000000    -31.832193    -23.731754    5.325149    -176.826675    37.310413    -150.654526    -25.634636    -27.371752    -22.334171    0.000000    0.000000    0.000000    
-25.783848    29.051313    -205.488831    13.710152    -14.683326    -0.106015    -7.552599    52.553154    4.098330    -8.412682    24.103392    2.165008    -2.651689    23.114813    -2.523479    2.674105    15.412520    -2.783666    0.495472    8.065186    -27.587217    -20.114565    0.657082    -42.640240    0.116900    -26.564610    -21.026430    35.749619    -19.472916    23.475750    -1.001266    3.476542    17.663271    17.753763    11.857289    42.921856    -5.073457    -22.251984    20.733183    -38.695110    -12.443468    -26.138935    6.607685    -78.529167    10.168598    -159.877548    42.399231    149.007645    27.450743    -35.242493    26.489105    0.000000    0.000000    0.000000    -31.810423    -23.776123    5.330517    -176.833572    37.253990    -150.549545    -25.566183    -27.333115    -22.354284    0.000000    0.000000    0.000000    
-25.810062    29.023468    -205.517456    13.692319    -14.679886    -0.098028    -7.567512    52.502934    4.115623    -8.424560    24.126333    2.183229    -2.604010    23.068075    -2.537370    2.655662    15.422879    -2.794153    0.473248    8.030151    -27.646423    -20.108791    0.510442    -42.583332    0.286115    -26.315750    -20.511084    34.559258    -19.823786    22.223021    -1.036633    3.476960    17.641499    17.735975    11.866579    42.949352    -5.084113    -22.137489    20.747330    -38.637253    -12.313945    -26.196821    6.849593    -78.590355    10.454643    -159.955856    42.411327    149.159637    27.394804    -35.253750    26.432299    0.000000    0.000000    0.000000    -31.759031    -23.832396    5.305722    -176.848862    37.210110    -150.606094    -25.526285    -27.316658    -22.324545    0.000000    0.000000    0.000000    
-25.834730    29.001900    -205.551117    13.678146    -14.658687    -0.093302    -7.552942    52.472553    4.103091    -8.473781    24.106691    2.189437    -2.576374    23.053726    -2.539776    2.664747    15.400723    -2.793910    0.462600    7.988394    -27.686407    -20.100899    0.423007    -42.515415    0.496976    -25.947870    -20.059654    34.146381    -19.752970    21.342340    -1.042676    3.475613    17.639223    17.734591    11.867489    42.969814    -5.142421    -21.999052    20.735146    -38.346256    -12.255948    -26.132656    7.136149    -78.650261    10.723294    -159.978333    42.407681    149.157867    27.452686    -35.220909    26.452232    0.000000    0.000000    0.000000    -31.714514    -23.905624    5.287859    -176.844315    37.155430    -150.638229    -25.519386    -27.337261    -22.291935    0.000000    0.000000    0.000000    
-25.854782    28.979460    -205.577667    13.675892    -14.665278    -0.073562    -7.533159    52.451252    4.079025    -8.519440    24.116318    2.187604    -2.555395    23.019897    -2.546751    2.684060    15.386689    -2.798431    0.462174    7.968237    -27.722010    -20.087891    0.305650    -42.445190    0.686212    -25.584991    -19.739651    33.117100    -19.714128    20.756327    -1.053606    3.432079    17.625380    17.750046    11.884933    42.985783    -5.147726    -21.851456    20.758661    -38.294750    -12.081839    -26.215233    7.219141    -78.688484    10.861995    -160.042786    42.434628    149.333878    27.477337    -35.248428    26.406727    0.000000    0.000000    0.000000    -31.701267    -23.950670    5.242889    -176.808090    37.074963    -150.503433    -25.488768    -27.248299    -22.402287    0.000000    0.000000    0.000000    
